# xmcd
#
# Track frame offsets:
#	150
#	15787
#	40159
#	79354
#	94045
#	109134
#	125304
#	142064
#	165605
#	185328
#	202918
#	218061
#	236643
#	250321
#	270136
#	292227
#	316585
#	328396
#
# Disc length: 4775 seconds
#
# Revision: 1
# Processed by: cddbd v1.5.2PL0 Copyright (c) Steve Scherf et al.
# Submitted via: EZCDAudioConverter 2.1.7.1
#
DISCID=f912a512
DTITLE=Various Artist - Akella Presents - vol.80 - Rockin' Blues  CD1
DYEAR=2016
DGENRE=Blues
TTITLE0=Albert Castiglia - Let The Big Dog Eat
TTITLE1=Ryan Hartt and The Blue Hearts - Anti-Blues Pill
TTITLE2=Stan West - So Sad, So Sad (For Steve Ray)
TTITLE3=Ralph De Jongh and Hans Van Lier - Dust My Broom
TTITLE4=The Lefty Collins Band - Pretty Little Woman
TTITLE5=Bobby Messano and NBO - Get Up And Dance
TTITLE6=Bill Wharton And The Ingredients - Swamp Boogie (version 2)
TTITLE7=Gregg Wright - Nocturne
TTITLE8=Carl Wyatt and The Delta Voodoo Kings - Billy's Lounge
TTITLE9=Thorbjorn Risager And The Black Tornado - Backseat Driver
TTITLE10=Mama's Bad Boys - Dead Tired And Blue
TTITLE11=Jordan Patterson Band - Favourite Boy
TTITLE12=Jimmie Bratcher - Rain
TTITLE13=Dave Steffen Band - Drive My Car
TTITLE14=Too Slim and The Taildraggers - Peace With The Maker
TTITLE15=Johnny Mastro and Mama's Boys - Shades of Grey
TTITLE16=The Rich Fabec Band - Do You Love Me
TTITLE17=Tim Gonzalez And Friends - Murdered By Love
EXTD=
EXTT0=
EXTT1=
EXTT2=
EXTT3=
EXTT4=
EXTT5=
EXTT6=
EXTT7=
EXTT8=
EXTT9=
EXTT10=
EXTT11=
EXTT12=
EXTT13=
EXTT14=
EXTT15=
EXTT16=
EXTT17=
PLAYORDER=
